HIERARCHY
ROOT Hips
{
	OFFSET 0.000000 100.481300 0.000000
	CHANNELS 6 Xposition Yposition Zposition Xrotation Yrotation Zrotation 
	JOINT Spine
	{
		OFFSET -0.279200 12.230698 -2.892100
		CHANNELS 3 Xrotation Yrotation Zrotation
		JOINT Spine1
		{
			OFFSET -0.232667 10.192268 -1.242267
			CHANNELS 3 Xrotation Yrotation Zrotation
			JOINT Spine1_split
			{
				OFFSET -0.232667 10.192268 -1.242267
				CHANNELS 3 Xrotation Yrotation Zrotation
				JOINT Spine2
				{
					OFFSET -0.232667 10.192268 -1.242267
					CHANNELS 3 Xrotation Yrotation Zrotation
					JOINT Neck
					{
						OFFSET -0.418800 17.814194 8.416900
						CHANNELS 3 Xrotation Yrotation Zrotation
						JOINT Head
						{
							OFFSET 0.000000 7.031097 3.806800
							CHANNELS 3 Xrotation Yrotation Zrotation
							JOINT HeadTop_End
							{
								OFFSET 0.000000 24.646606 12.978600
								CHANNELS 3 Xrotation Yrotation Zrotation
								End Site
								{
									OFFSET 0.000000 0.000000 0.000000
								}
							}
						}
					}
					JOINT LeftShoulder
					{
						OFFSET 8.476499 7.247704 -3.868750
						CHANNELS 3 Xrotation Yrotation Zrotation
						JOINT LeftShoulder_split
						{
							OFFSET 8.476499 7.247704 -3.868750
							CHANNELS 3 Xrotation Yrotation Zrotation
							JOINT LeftArm
							{
								OFFSET 9.308998 -2.777710 0.208600
								CHANNELS 3 Xrotation Yrotation Zrotation
								JOINT LeftForeArm
								{
									OFFSET 29.972298 0.000000 0.000000
									CHANNELS 3 Xrotation Yrotation Zrotation
									JOINT LeftHand
									{
										OFFSET 26.026505 0.000000 0.000000
										CHANNELS 3 Xrotation Yrotation Zrotation
										JOINT LeftHandThumb1
										{
											OFFSET 12.240501 -7.147949 9.207150
											CHANNELS 3 Xrotation Yrotation Zrotation
											JOINT LeftHandThumb2
											{
												OFFSET 4.138618 -2.389435 2.389433
												CHANNELS 3 Xrotation Yrotation Zrotation
												JOINT LeftHandThumb3
												{
													OFFSET 2.726913 -1.574387 1.574386
													CHANNELS 3 Xrotation Yrotation Zrotation
													JOINT LeftHandThumb4
													{
														OFFSET 3.941010 -2.275345 2.275342
														CHANNELS 3 Xrotation Yrotation Zrotation
														End Site
														{
															OFFSET 0.000000 0.000000 0.000000
														}
													}
												}
											}
										}
										JOINT LeftHandIndex1
										{
											OFFSET 24.424698 -1.985611 5.953459
											CHANNELS 3 Xrotation Yrotation Zrotation
											JOINT LeftHandIndex2
											{
												OFFSET 6.426697 0.000000 0.000000
												CHANNELS 3 Xrotation Yrotation Zrotation
												JOINT LeftHandIndex3
												{
													OFFSET 5.337898 0.000000 0.000000
													CHANNELS 3 Xrotation Yrotation Zrotation
													JOINT LeftHandIndex4
													{
														OFFSET 4.409401 0.000000 0.000000
														CHANNELS 3 Xrotation Yrotation Zrotation
														End Site
														{
															OFFSET 0.000000 0.000000 0.000000
														}
													}
												}
											}
										}
										JOINT LeftHandMiddle1
										{
											OFFSET 23.810104 0.000000 0.000000
											CHANNELS 3 Xrotation Yrotation Zrotation
											JOINT LeftHandMiddle2
											{
												OFFSET 7.176498 0.000000 0.000000
												CHANNELS 3 Xrotation Yrotation Zrotation
												JOINT LeftHandMiddle3
												{
													OFFSET 6.774902 0.000000 0.000000
													CHANNELS 3 Xrotation Yrotation Zrotation
													JOINT LeftHandMiddle4
													{
														OFFSET 5.403328 0.000000 0.000000
														CHANNELS 3 Xrotation Yrotation Zrotation
														End Site
														{
															OFFSET 0.000000 0.000000 0.000000
														}
													}
												}
											}
										}
										JOINT LeftHandRing1
										{
											OFFSET 22.908401 -0.839279 -6.020567
											CHANNELS 3 Xrotation Yrotation Zrotation
											JOINT LeftHandRing2
											{
												OFFSET 6.337502 0.000000 0.000000
												CHANNELS 3 Xrotation Yrotation Zrotation
												JOINT LeftHandRing3
												{
													OFFSET 5.779297 0.000000 0.000000
													CHANNELS 3 Xrotation Yrotation Zrotation
													JOINT LeftHandRing4
													{
														OFFSET 4.965698 0.000000 0.000000
														CHANNELS 3 Xrotation Yrotation Zrotation
														End Site
														{
															OFFSET 0.000000 0.000000 0.000000
														}
													}
												}
											}
										}
										JOINT LeftHandPinky1
										{
											OFFSET 20.037003 -1.530319 -10.950146
											CHANNELS 3 Xrotation Yrotation Zrotation
											JOINT LeftHandPinky2
											{
												OFFSET 5.254700 0.000000 0.000000
												CHANNELS 3 Xrotation Yrotation Zrotation
												JOINT LeftHandPinky3
												{
													OFFSET 4.810204 0.000000 0.000000
													CHANNELS 3 Xrotation Yrotation Zrotation
													JOINT LeftHandPinky4
													{
														OFFSET 3.647202 0.000000 0.000000
														CHANNELS 3 Xrotation Yrotation Zrotation
														End Site
														{
															OFFSET 0.000000 0.000000 0.000000
														}
													}
												}
											}
										}
									}
								}
							}
						}
					}
					JOINT RightShoulder
					{
						OFFSET -7.570500 7.247704 -3.868750
						CHANNELS 3 Xrotation Yrotation Zrotation
						JOINT RightShoulder_split
						{
							OFFSET -7.570500 7.247704 -3.868750
							CHANNELS 3 Xrotation Yrotation Zrotation
							JOINT RightArm
							{
								OFFSET -9.308998 -2.777710 0.208500
								CHANNELS 3 Xrotation Yrotation Zrotation
								JOINT RightForeArm
								{
									OFFSET -29.972300 0.000000 0.000000
									CHANNELS 3 Xrotation Yrotation Zrotation
									JOINT RightHand
									{
										OFFSET -26.026505 0.000000 0.000000
										CHANNELS 3 Xrotation Yrotation Zrotation
										JOINT RightHandThumb1
										{
											OFFSET -12.240601 -7.148026 9.207092
											CHANNELS 3 Xrotation Yrotation Zrotation
											JOINT RightHandThumb2
											{
												OFFSET -4.138618 -2.389435 2.389433
												CHANNELS 3 Xrotation Yrotation Zrotation
												JOINT RightHandThumb3
												{
													OFFSET -2.726974 -1.574417 1.574421
													CHANNELS 3 Xrotation Yrotation Zrotation
													JOINT RightHandThumb4
													{
														OFFSET -3.941010 -2.275345 2.275343
														CHANNELS 3 Xrotation Yrotation Zrotation
														End Site
														{
															OFFSET 0.000000 0.000000 0.000000
														}
													}
												}
											}
										}
										JOINT RightHandIndex1
										{
											OFFSET -24.424698 -1.985657 5.953444
											CHANNELS 3 Xrotation Yrotation Zrotation
											JOINT RightHandIndex2
											{
												OFFSET -6.426697 0.000000 0.000000
												CHANNELS 3 Xrotation Yrotation Zrotation
												JOINT RightHandIndex3
												{
													OFFSET -5.337898 0.000000 0.000000
													CHANNELS 3 Xrotation Yrotation Zrotation
													JOINT RightHandIndex4
													{
														OFFSET -4.409401 0.000000 0.000000
														CHANNELS 3 Xrotation Yrotation Zrotation
														End Site
														{
															OFFSET 0.000000 0.000000 0.000000
														}
													}
												}
											}
										}
										JOINT RightHandMiddle1
										{
											OFFSET -23.810097 0.000000 0.000000
											CHANNELS 3 Xrotation Yrotation Zrotation
											JOINT RightHandMiddle2
											{
												OFFSET -7.176498 0.000000 0.000000
												CHANNELS 3 Xrotation Yrotation Zrotation
												JOINT RightHandMiddle3
												{
													OFFSET -6.774902 0.000000 0.000000
													CHANNELS 3 Xrotation Yrotation Zrotation
													JOINT RightHandMiddle4
													{
														OFFSET -5.403328 0.000000 0.000000
														CHANNELS 3 Xrotation Yrotation Zrotation
														End Site
														{
															OFFSET 0.000000 0.000000 0.000000
														}
													}
												}
											}
										}
										JOINT RightHandRing1
										{
											OFFSET -22.908302 -0.839325 -6.020576
											CHANNELS 3 Xrotation Yrotation Zrotation
											JOINT RightHandRing2
											{
												OFFSET -6.337502 0.000000 0.000000
												CHANNELS 3 Xrotation Yrotation Zrotation
												JOINT RightHandRing3
												{
													OFFSET -5.779297 0.000000 0.000000
													CHANNELS 3 Xrotation Yrotation Zrotation
													JOINT RightHandRing4
													{
														OFFSET -4.965698 0.000000 0.000000
														CHANNELS 3 Xrotation Yrotation Zrotation
														End Site
														{
															OFFSET 0.000000 0.000000 0.000000
														}
													}
												}
											}
										}
										JOINT RightHandPinky1
										{
											OFFSET -20.037003 -1.530334 -10.950259
											CHANNELS 3 Xrotation Yrotation Zrotation
											JOINT RightHandPinky2
											{
												OFFSET -5.254700 0.000000 0.000000
												CHANNELS 3 Xrotation Yrotation Zrotation
												JOINT RightHandPinky3
												{
													OFFSET -4.810204 0.000000 0.000000
													CHANNELS 3 Xrotation Yrotation Zrotation
													JOINT RightHandPinky4
													{
														OFFSET -3.647202 0.000000 0.000000
														CHANNELS 3 Xrotation Yrotation Zrotation
														End Site
														{
															OFFSET 0.000000 0.000000 0.000000
														}
													}
												}
											}
										}
									}
								}
							}
						}
					}
				}
			}
		}
	}
	JOINT LeftUpLeg
	{
		OFFSET 15.427100 -6.655098 0.678600
		CHANNELS 3 Xrotation Yrotation Zrotation
		JOINT LeftLeg
		{
			OFFSET 4.081073 -39.591068 13.024000
			CHANNELS 3 Xrotation Yrotation Zrotation
			JOINT LeftFoot
			{
				OFFSET -4.081074 -37.707932 -15.979700
				CHANNELS 3 Xrotation Yrotation Zrotation
				JOINT LeftToeBase
				{
					OFFSET 5.346399 -15.068900 20.645000
					CHANNELS 3 Xrotation Yrotation Zrotation
					JOINT LeftToe_End
					{
						OFFSET 2.754700 0.931300 11.300900
						CHANNELS 3 Xrotation Yrotation Zrotation
						End Site
						{
							OFFSET 0.000000 0.000000 0.000000
						}
					}
				}
			}
		}
	}
	JOINT RightUpLeg
	{
		OFFSET -15.569500 -6.655098 0.678600
		CHANNELS 3 Xrotation Yrotation Zrotation
		JOINT RightLeg
		{
			OFFSET -4.081825 -39.591045 13.023800
			CHANNELS 3 Xrotation Yrotation Zrotation
			JOINT RightFoot
			{
				OFFSET 4.081824 -37.707954 -15.979600
				CHANNELS 3 Xrotation Yrotation Zrotation
				JOINT RightToeBase
				{
					OFFSET -5.346400 -15.068900 20.645000
					CHANNELS 3 Xrotation Yrotation Zrotation
					JOINT RightToe_End
					{
						OFFSET -2.754700 0.931300 11.300900
						CHANNELS 3 Xrotation Yrotation Zrotation
						End Site
						{
							OFFSET 0.000000 0.000000 0.000000
						}
					}
				}
			}
		}
	}
}
MOTION
Frames: 4
Frame Time: 0.016667
-5.170261 80.004768 3.454858 -7.624971 22.516087 8.249381 19.097556 1.394082 0.693296 5.234397 1.638208 -0.510232 0.000000 0.000000 0.000000 5.225530 1.690293 -0.516648 -17.295337 -9.726846 -7.669280 -20.599094 -12.220337 0.353304 0.000001 -0.000001 -0.000000 -0.697452 -12.691486 -24.679616 0.000000 0.000000 0.000000 -13.018042 -5.162528 -28.488919 51.978744 -46.839665 7.482885 4.023838 -22.781635 14.370762 11.432783 11.898659 2.278021 0.907261 24.171817 -3.294984 -0.000001 -0.000014 0.000004 -0.000001 0.000001 0.000002 -4.825737 9.288206 -23.825218 3.434084 9.250166 -40.028395 0.000001 -0.000002 0.000003 0.000001 -0.000003 -0.000003 -11.628061 16.087797 -27.374741 11.222070 9.790867 -61.810350 0.000003 0.000000 0.000002 0.000001 0.000000 0.000004 -8.924448 18.188754 -48.130762 11.602471 5.110931 -60.456381 -0.000001 0.000001 -0.000002 0.000001 0.000001 0.000000 -5.365015 8.158716 -54.955740 9.871759 -13.977172 -74.788434 -0.000008 0.000003 -0.000007 0.000002 -0.000002 0.000002 6.242215 -2.614797 -11.084386 0.000000 0.000000 0.000000 -35.911366 -11.573015 -6.604742 -129.166104 14.300506 149.579340 18.373682 2.814409 -8.754308 -10.063562 -12.114455 -5.432845 -8.224830 -5.483069 5.365288 -0.000004 0.000001 -0.000004 -0.000002 -0.000001 -0.000001 4.411659 -5.661973 62.206289 9.270950 -12.376244 79.811758 0.000005 -0.000010 0.000000 -0.000001 -0.000001 0.000002 -5.517157 -19.375235 62.311474 15.444354 -10.143914 85.739952 -0.000006 -0.000009 0.000001 0.000001 0.000001 0.000002 -7.692928 -21.406001 73.131238 13.187945 -6.413941 74.081885 0.000003 0.000007 -0.000003 -0.000001 -0.000001 -0.000001 -6.411619 -22.996123 83.381658 9.054118 13.497766 82.144773 0.000005 0.000003 0.000002 0.000001 0.000000 -0.000001 -22.004264 -14.120702 7.243447 41.787142 -1.041565 -0.053294 -15.539415 -4.625779 -18.137564 -0.000078 -0.000000 0.000001 0.000000 -0.000000 -0.000000 -10.652047 -28.599105 -26.138195 48.650259 1.455284 0.308087 -34.518530 -5.964371 11.388130 -0.000045 0.000002 0.000001 -0.000000 -0.000002 -0.000000 
-5.393527 80.269562 3.944949 -7.853700 24.196898 8.199545 19.011458 1.304581 0.739368 5.096430 1.511988 -0.476952 0.000000 0.000000 0.000000 5.088405 1.550687 -0.475985 -18.172864 -7.374422 -11.412609 -20.891290 -12.073567 1.777841 -0.000001 -0.000000 0.000000 -0.787867 -12.075480 -26.714938 0.000000 0.000000 0.000000 -11.942299 -3.432195 -26.261541 55.390864 -49.285177 10.889097 5.145018 -22.468985 14.527700 11.432786 11.898662 2.278035 1.501899 25.466680 -3.312469 0.000008 -0.000013 0.000001 0.000000 -0.000002 0.000001 -3.794594 7.957274 -23.971129 4.254771 10.064924 -46.827685 -0.000000 -0.000000 0.000002 0.000002 -0.000002 0.000001 -11.756366 14.887289 -29.374212 11.904627 9.966834 -65.739587 0.000005 -0.000000 -0.000000 0.000001 0.000001 -0.000001 -9.476063 18.032225 -49.017792 11.714555 5.347339 -61.842876 -0.000002 0.000001 -0.000002 -0.000001 -0.000000 -0.000000 -6.800932 9.633124 -56.189009 9.701530 -13.949382 -75.709409 -0.000007 0.000004 -0.000007 -0.000008 0.000002 -0.000000 7.717158 -7.373784 -5.050556 0.000000 0.000000 0.000000 -43.972153 -21.360512 -11.904040 -118.831303 10.484323 148.086479 21.961616 11.633968 -14.248335 -10.063560 -12.114482 -5.432871 -8.226148 -5.485143 5.369686 0.000002 -0.000001 -0.000001 0.000001 0.000000 -0.000004 2.105028 -3.843909 56.888639 9.938175 -12.409273 83.561163 0.000007 -0.000009 -0.000001 0.000002 -0.000001 0.000001 -5.678351 -19.240257 61.807318 15.499922 -10.129656 85.942590 -0.000004 -0.000009 0.000005 -0.000000 0.000000 -0.000001 -7.133075 -21.873418 74.675572 13.186703 -6.412974 74.080000 0.000006 0.000007 0.000002 0.000001 0.000001 0.000002 -5.396378 -23.712725 86.009089 9.042692 13.516146 81.894740 0.000007 0.000004 0.000001 0.000002 -0.000001 0.000000 -21.836318 -15.888019 7.070343 41.178329 -0.983422 -0.040761 -15.267365 -4.626728 -18.484995 -0.000078 0.000001 0.000001 -0.000000 0.000001 0.000000 -9.194973 -30.491249 -25.384246 47.515789 1.442849 0.316760 -34.719218 -6.386147 11.332627 -0.000045 0.000003 0.000001 0.000000 -0.000000 0.000000 
-5.587879 80.593155 4.467557 -7.994701 26.286366 8.502470 19.013117 0.921732 0.852335 5.119965 0.756774 -0.529776 0.000000 0.000000 0.000000 5.119972 0.792233 -0.531182 -18.019885 -6.128812 -11.431358 -23.168538 -10.769679 0.960113 -0.000001 -0.000001 -0.000000 -0.786546 -12.473172 -26.068141 0.000000 0.000000 0.000000 -9.832107 0.874616 -25.954331 55.683729 -52.355763 13.970366 5.154076 -22.384072 15.753929 11.432790 11.898659 2.278021 2.008795 26.268622 -3.133982 0.000004 -0.000017 0.000002 0.000002 0.000001 -0.000002 -2.251138 6.806039 -25.190445 5.503152 11.025388 -56.130314 -0.000006 -0.000003 -0.000001 0.000001 -0.000001 0.000001 -11.459819 14.203334 -33.122644 12.927607 10.135836 -71.691913 0.000007 -0.000004 -0.000004 -0.000000 0.000002 0.000001 -10.290464 17.678194 -51.680992 12.170175 5.710929 -65.667590 -0.000000 -0.000003 0.000000 0.000000 0.000000 -0.000000 -9.073661 11.365264 -57.531530 9.481998 -13.836155 -77.686722 -0.000008 0.000005 -0.000006 -0.000003 0.000003 -0.000002 8.148596 -9.861668 -1.653014 0.000000 0.000000 0.000000 -54.292398 -30.007797 -14.466126 -110.199904 8.391179 146.424803 18.072105 15.336317 -13.285885 -10.063555 -12.114477 -5.432867 -8.227448 -5.487232 5.374038 -0.000000 -0.000003 -0.000006 -0.000006 0.000000 -0.000001 1.196549 -3.158871 56.657290 10.312576 -12.414090 85.657710 0.000006 -0.000008 -0.000001 0.000000 0.000001 -0.000001 -5.742774 -19.186647 61.604017 15.602927 -10.102557 86.317445 -0.000004 -0.000008 0.000002 -0.000002 -0.000001 0.000000 -6.814866 -22.127532 75.537705 13.249245 -6.405608 74.350571 0.000004 0.000015 -0.000000 0.000001 0.000003 0.000000 -4.320112 -24.385628 88.689856 9.030337 13.536121 81.623028 0.000012 0.000005 0.000002 -0.000000 -0.000003 0.000001 -21.901963 -17.890996 6.329932 40.262182 -0.916079 -0.027282 -14.756432 -4.583536 -18.780688 -0.000078 -0.000000 0.000001 -0.000000 -0.000000 -0.000000 -7.938816 -32.613416 -25.041176 46.305950 1.445285 0.324600 -34.922163 -6.937083 11.377148 -0.000045 0.000003 0.000001 0.000000 -0.000002 0.000000 
-5.771424 80.946388 4.912700 -7.939531 28.146897 8.753132 19.018602 0.395917 0.978894 5.137558 -0.395259 -0.742507 0.000000 0.000000 0.000000 5.145103 -0.355859 -0.748200 -17.870381 -5.140443 -11.214734 -24.990207 -9.168329 -0.055151 0.000000 0.000001 0.000000 -0.729886 -12.936523 -24.594034 0.000000 0.000000 0.000000 -7.448408 5.738898 -26.622696 53.665886 -55.184090 15.413773 5.030932 -22.352301 16.946794 11.432769 11.898657 2.278050 2.417358 26.741167 -2.824123 0.000003 -0.000016 0.000001 0.000002 -0.000002 -0.000004 -0.680616 5.686685 -26.936058 6.891999 11.728972 -65.387832 -0.000003 -0.000001 0.000001 -0.000001 -0.000001 -0.000002 -11.129760 13.721700 -37.247494 13.953070 10.245309 -77.699344 0.000004 -0.000001 -0.000003 -0.000000 -0.000000 -0.000001 -11.165322 17.079404 -55.081104 12.723745 6.058981 -69.966860 0.000001 -0.000003 0.000001 0.000002 0.000002 -0.000001 -11.557520 12.642513 -58.779638 9.272221 -13.696379 -79.792708 -0.000002 0.000005 -0.000007 0.000002 -0.000001 -0.000000 8.112590 -11.609559 1.893598 0.000000 0.000000 0.000000 -67.056154 -34.147609 -17.067555 -102.494235 5.567612 145.072371 10.148194 17.432296 -8.852084 -10.063552 -12.114485 -5.432861 -8.228744 -5.489380 5.378385 0.000000 0.000001 0.000002 0.000003 -0.000002 0.000002 0.713241 -2.871474 56.761334 10.462526 -12.409623 86.501211 0.000004 -0.000010 0.000001 0.000002 0.000001 -0.000000 -5.871307 -19.074750 61.194083 15.711433 -10.073250 86.712557 -0.000006 -0.000008 0.000005 -0.000000 0.000000 -0.000001 -6.700052 -22.214833 75.840788 13.352713 -6.393764 74.797839 0.000003 0.000008 -0.000001 0.000001 0.000000 0.000000 -3.692240 -24.744693 90.215700 9.019920 13.553482 81.391266 0.000010 0.000007 0.000002 0.000001 -0.000001 0.000000 -22.099627 -19.665587 5.616125 39.254941 -0.878514 -0.016804 -14.178048 -4.471674 -19.028376 -0.000078 -0.000000 0.000001 -0.000000 -0.000000 -0.000000 -7.023424 -34.451898 -24.702083 45.148018 1.428065 0.327907 -34.992176 -7.428048 11.399269 -0.000045 0.000002 0.000001 -0.000000 -0.000002 -0.000000 
